<svg xmlns="http://www.w3.org/2000/svg" width="256" height="256">
  <defs>
    <pattern id="a" width="32" height="32" patternTransform="scale(1)" patternUnits="userSpaceOnUse">
      <!-- <rect width="100%" height="100%" fill="#fff"/> -->
      <path fill="none" stroke="rgba(76, 204, 185, 0.1)" stroke-linecap="square" d="m37.657 10.343-4.243 4.243m-2.828 2.828-4.243 4.243m11.314 0-4.243-4.243m-2.828-2.828-4.243-4.243m-20.686 0-4.243 4.243m-2.828 2.828-4.243 4.243m11.314 0-4.243-4.243m-2.828-2.828-4.243-4.243"/>
      <path fill="none" stroke="rgba(253, 161, 0, 0.15)" stroke-linecap="square" d="M16-8v6m0 4v6m8-8h-6m-4 0H8m8 24v6m0 4v6m8-8h-6m-4 0H8"/>
    </pattern>
  </defs>
  <rect width="800%" height="800%" fill="url(#a)"/>
</svg>