<?xml version="1.0" standalone="no"?>
<!DOCTYPE svg PUBLIC "-//W3C//DTD SVG 20010904//EN"
 "http://www.w3.org/TR/2001/REC-SVG-20010904/DTD/svg10.dtd">
<svg version="1.0" xmlns="http://www.w3.org/2000/svg"
 width="507.000000pt" height="576.000000pt" viewBox="0 0 507.000000 576.000000"
 preserveAspectRatio="xMidYMid meet">

<g transform="translate(0.000000,576.000000) scale(0.100000,-0.100000)"
fill="#000000" stroke="none">
<path d="M2707 5679 c-8 -19 -420 -972 -917 -2119 -496 -1147 -907 -2096 -912
-2110 l-10 -25 -24 30 c-36 45 -157 287 -197 395 -189 510 -156 1105 88 1589
267 531 753 916 1341 1061 l40 10 111 257 c62 142 107 260 102 262 -6 2 -54
-2 -107 -9 -958 -118 -1770 -790 -2067 -1710 -83 -257 -118 -484 -118 -765 -1
-568 179 -1093 531 -1543 39 -51 72 -94 72 -97 0 -2 -83 -196 -185 -430 -102
-235 -185 -429 -185 -431 0 -2 221 -4 491 -4 l490 0 16 37 c8 21 35 86 60 145
l45 107 47 -23 c137 -70 383 -158 547 -196 482 -113 1011 -75 1470 105 524
205 960 575 1247 1059 241 407 361 879 344 1350 -7 177 -25 342 -38 329 -23
-23 -527 -979 -550 -1043 l-27 -75 -14 35 c-8 19 -50 115 -92 213 -43 98 -76
180 -74 182 3 3 230 105 233 105 1 0 7 -36 15 -81 7 -44 16 -77 20 -72 17 19
450 837 445 841 -4 4 -780 221 -877 245 -26 7 -25 4 28 -73 l55 -80 -68 -31
c-37 -17 -94 -42 -126 -56 -34 -15 -61 -22 -66 -17 -5 5 -140 313 -301 684
-618 1426 -853 1965 -861 1974 -4 5 -14 -7 -22 -25z m128 -2637 c87 -222 153
-407 149 -411 -5 -4 -164 -77 -354 -161 -190 -84 -368 -163 -397 -176 l-52
-23 8 22 c5 12 111 267 236 567 125 300 231 556 236 569 5 13 11 22 13 20 2
-2 75 -185 161 -407z m1223 -217 c16 -34 17 -31 -25 -48 -21 -8 -59 -25 -85
-37 l-48 -21 20 -39 20 -39 74 34 74 33 11 -24 c6 -14 11 -29 11 -33 0 -5 -31
-22 -70 -40 -38 -17 -70 -36 -70 -41 0 -22 32 -71 43 -67 7 3 45 20 86 38 72
32 74 33 87 14 8 -11 13 -26 12 -33 -4 -17 -228 -117 -238 -105 -17 19 -152
337 -144 340 5 2 52 23 104 47 52 24 102 45 111 45 9 1 21 -10 27 -24z m-318
-170 c0 -33 -2 -35 -35 -35 -73 0 -115 -43 -115 -118 0 -81 74 -143 147 -123
20 6 49 22 64 37 28 27 29 27 49 9 26 -23 25 -37 -2 -62 -85 -77 -196 -77
-274 1 -104 103 -75 262 57 315 13 5 43 10 67 10 42 1 42 1 42 -34z m-283
-264 c40 -90 73 -166 73 -171 0 -11 -52 -32 -61 -23 -9 9 -149 322 -149 333 0
9 42 29 54 26 5 -1 42 -76 83 -165z m-153 -86 c41 -93 74 -171 72 -172 -1 -2
-76 22 -166 52 -90 30 -165 53 -167 51 -2 -2 16 -48 41 -102 l44 -99 -29 -14
c-18 -9 -33 -11 -38 -5 -13 15 -154 334 -149 339 2 3 78 -20 168 -50 90 -30
165 -54 166 -52 1 1 -18 45 -42 97 -23 52 -43 100 -43 107 -1 13 51 34 61 24
3 -3 40 -82 82 -176z m-572 34 c-8 -22 -24 -45 -34 -50 -16 -9 -18 -5 -18 29
0 30 5 41 23 50 41 20 46 15 29 -29z m107 -56 c14 -32 13 -33 -69 -69 -36 -15
-69 -31 -74 -35 -9 -8 14 -79 26 -79 5 0 30 11 56 24 80 40 89 41 106 8 l15
-30 -74 -33 c-41 -18 -75 -34 -75 -36 0 -14 31 -73 38 -73 5 0 43 16 85 35 42
19 78 35 81 35 3 0 12 -13 20 -29 l15 -28 -115 -52 c-63 -29 -119 -51 -125
-49 -9 3 -142 291 -151 326 -2 9 36 31 102 62 58 26 110 49 116 49 6 1 16 -11
23 -26z m-367 -173 c82 -23 138 -101 138 -193 0 -82 -37 -128 -148 -179 -47
-23 -88 -37 -89 -32 -2 5 -37 83 -77 174 l-74 165 61 28 c54 25 110 43 142 46
6 0 27 -4 47 -9z m-294 -305 l141 -130 -35 -18 -36 -19 -27 26 c-33 31 -33 31
-98 4 -52 -21 -53 -22 -53 -65 0 -38 -3 -45 -26 -54 -15 -5 -29 -7 -32 -5 -2
3 -7 98 -10 212 -5 205 -5 207 15 193 11 -8 83 -72 161 -144z m1310 -436 c100
-256 182 -470 182 -475 0 -13 -157 -107 -275 -164 -308 -148 -646 -212 -1003
-188 -252 16 -500 81 -715 186 l-116 57 70 170 c39 94 76 175 82 182 19 18
1581 712 1588 705 3 -4 88 -217 187 -473z m-1668 432 c0 -34 -3 -38 -19 -34
-34 9 -91 -17 -112 -51 -49 -81 9 -196 100 -196 38 0 98 30 107 55 5 13 11 12
35 -6 27 -19 28 -21 13 -44 -23 -35 -109 -75 -161 -75 -122 0 -215 130 -182
253 20 74 101 133 187 136 31 1 32 0 32 -38z m-150 -411 c0 -3 -15 -13 -34
-22 -33 -16 -34 -16 -63 13 l-29 30 -57 -26 c-56 -26 -57 -27 -57 -70 0 -32
-4 -44 -17 -48 -10 -2 -26 -8 -35 -12 -17 -7 -18 7 -18 210 l0 216 155 -142
c85 -78 155 -145 155 -149z"/>
<path d="M2358 2033 c-21 -9 -38 -20 -38 -24 0 -8 88 -210 94 -216 1 -1 21 7
45 19 46 23 81 68 81 106 0 38 -31 93 -64 113 -37 22 -67 23 -118 2z"/>
<path d="M2061 1778 c0 -18 3 -41 7 -50 6 -15 10 -15 41 -2 l34 14 -33 35
c-19 19 -38 35 -42 35 -4 0 -8 -15 -7 -32z"/>
<path d="M1420 1481 c0 -53 0 -53 28 -46 47 11 49 23 9 63 l-37 37 0 -54z"/>
<path d="M3150 4952 c0 -5 57 -140 128 -302 l127 -293 95 -55 c379 -218 648
-501 837 -881 l62 -125 276 -77 c247 -68 275 -74 275 -57 0 48 -107 336 -179
483 -121 246 -257 439 -450 639 -291 299 -675 533 -1070 651 -93 27 -101 29
-101 17z"/>
</g>
</svg>
