<?xml version="1.0" encoding="UTF-8"?>
<svg version="1.1" xmlns="http://www.w3.org/2000/svg" width="507" height="576">
<path d="M0 0 C2.86596448 2.47263772 4.07175982 5.0215182 5.5390625 8.484375 C6.02826172 9.62712891 6.51746094 10.76988281 7.02148438 11.94726562 C7.28147217 12.56384033 7.54145996 13.18041504 7.80932617 13.81567383 C8.64325119 15.79328171 9.48549492 17.76715643 10.33007812 19.74023438 C11.24382063 21.87499562 12.15704664 24.00996187 13.06781006 26.14599609 C16.4687082 34.11910917 19.93876987 42.06175912 23.40975952 50.00454712 C25.23759335 54.1882784 27.06225526 58.37339184 28.88671875 62.55859375 C29.41900841 63.77956001 29.41900841 63.77956001 29.96205139 65.02519226 C33.59972768 73.37182881 37.21914928 81.72632307 40.8359375 90.08203125 C45.8775098 101.72705781 50.93877494 113.36350419 56 125 C62.00571372 138.80835475 68.00556947 152.61916309 73.98828125 166.4375 C78.54265396 176.95291242 83.11201153 187.461791 87.68234253 197.97027588 C100.86952782 228.29191427 100.86952782 228.29191427 105.62719727 239.2578125 C106.40257563 241.04452348 107.1788068 242.8308643 107.95507812 244.6171875 C109.31003209 247.74199167 110.65804028 250.86959489 112 254 C112.47969238 255.11858398 112.95938477 256.23716797 113.45361328 257.38964844 C114.14366455 259.01821777 114.14366455 259.01821777 114.84765625 260.6796875 C115.46846069 262.14124268 115.46846069 262.14124268 116.10180664 263.63232422 C117 266 117 266 117 268 C124.92 264.37 132.84 260.74 141 257 C139.28604612 253.57209224 137.44317709 250.46716436 135.375 247.25 C134.74335938 246.26515625 134.11171875 245.2803125 133.4609375 244.265625 C132.73777344 243.14414062 132.73777344 243.14414062 132 242 C136.07056598 240.35056543 139.64632559 241.71651779 143.67089844 242.85839844 C144.43891785 243.06801208 145.20693726 243.27762573 145.99822998 243.49359131 C148.53798482 244.18940761 151.07361181 244.89916187 153.609375 245.609375 C155.37790705 246.09760866 157.14664817 246.5850856 158.91558838 247.07183838 C162.62607069 248.09499287 166.33469004 249.12456252 170.04199219 250.15917969 C174.77817848 251.48080235 179.51747947 252.79078449 184.25808334 254.09646225 C187.91366926 255.10391708 191.56811385 256.11545782 195.2221756 257.1284256 C196.9681551 257.61235665 198.71434288 258.09553697 200.46074677 258.57793427 C202.91207916 259.25617339 205.36197658 259.93936748 207.81152344 260.62402344 C208.52453613 260.8205249 209.23754883 261.01702637 209.97216797 261.21948242 C214.75840225 262.56486916 219.36358111 264.20363207 224 266 C219.29111653 275.66706078 214.32206755 285.1589032 209.13671875 294.57861328 C205.87648181 300.51848323 202.67087811 306.48455851 199.5078125 312.4765625 C199.11602814 313.2186496 198.72424377 313.96073669 198.32058716 314.72531128 C196.37474494 318.41365423 194.43283073 322.10402377 192.49462891 325.79638672 C187.84236057 334.63889316 183.01975761 343.36071506 178 352 C176.2820786 348.73533798 175.48354039 345.90124236 174.875 342.25 C174.70742188 341.26515625 174.53984375 340.2803125 174.3671875 339.265625 C174.24601562 338.51796875 174.12484375 337.7703125 174 337 C168.79110298 338.64575581 163.84300366 340.75104176 158.859375 342.96484375 C154.20758929 345 154.20758929 345 152 345 C155.45019779 354.26268445 159.25629572 363.29816509 163.3125 372.3125 C163.86814853 373.55389775 164.4234884 374.79543371 164.97851562 376.03710938 C166.31600317 379.02610329 167.65653014 382.01369144 169 385 C169.39457397 383.98123779 169.39457397 383.98123779 169.79711914 382.94189453 C173.4150945 373.91160836 177.84093995 365.43637962 182.4375 356.875 C183.24366849 355.36399516 184.04940781 353.85276128 184.85473633 352.34130859 C187.22882556 347.89008044 189.61314734 343.444394 192 339 C192.6543122 337.78060718 193.30861004 336.56120666 193.96289062 335.34179688 C196.81573105 330.02865203 199.67603688 324.71961553 202.54296875 319.4140625 C205.03904197 314.79138397 207.51815622 310.16000459 209.98828125 305.5234375 C210.66443821 304.25567998 211.34062618 302.98793899 212.0168457 301.72021484 C213.29798782 299.31828298 214.57601456 296.91478159 215.85229492 294.51025391 C223.42881949 280.30883546 223.42881949 280.30883546 227 275 C227.33 275 227.66 275 228 275 C233.42608542 302.87328405 233.35942804 334.13867866 228 362 C227.80132324 363.03543945 227.60264648 364.07087891 227.39794922 365.13769531 C220.18888799 401.37200308 205.75280127 435.13450616 184 465 C183.58250488 465.57588867 183.16500977 466.15177734 182.73486328 466.74511719 C176.41390508 475.39537732 169.43271647 483.29395958 162 491 C161.38318359 491.64404785 160.76636719 492.2880957 160.13085938 492.95166016 C151.30279444 502.12959107 142.25741098 510.45683051 132 518 C130.89425275 518.83556908 129.7887832 519.67150577 128.68359375 520.5078125 C93.48009792 546.77302105 50.55581571 562.50863291 7 567 C6.04867188 567.11085938 5.09734375 567.22171875 4.1171875 567.3359375 C-44.31993006 572.11506643 -91.57567082 561.05422021 -135 540 C-136.485 544.455 -136.485 544.455 -138 549 C-140.64 555.27 -143.28 561.54 -146 568 C-178.67 568 -211.34 568 -245 568 C-244.13609201 563.68046005 -243.05320521 560.4730618 -241.32421875 556.47265625 C-240.90793716 555.50425812 -240.90793716 555.50425812 -240.48324585 554.51629639 C-239.5560551 552.36295833 -238.62184118 550.21274403 -237.6875 548.0625 C-237.03210584 546.54467247 -236.37708539 545.02668352 -235.72241211 543.50854492 C-233.48918852 538.33573379 -231.24463952 533.16786507 -229 528 C-228.11029547 525.94989413 -227.22064897 523.89976308 -226.33105469 521.84960938 C-220.56424099 508.56196067 -214.78639369 495.27913311 -209 482 C-209.59550911 481.20669029 -209.59550911 481.20669029 -210.20304871 480.39735413 C-219.78005275 467.63461207 -229.20054329 454.94552485 -237 441 C-237.59675537 439.9478833 -237.59675537 439.9478833 -238.20556641 438.87451172 C-253.1627182 412.31579231 -262.63905618 383.13429235 -267 353 C-267.11714355 352.20271484 -267.23428711 351.40542969 -267.35498047 350.58398438 C-276.43550317 285.65757243 -258.01415433 218.38225989 -218.69433594 166.26953125 C-214.12798953 160.37890729 -209.1438632 154.84529297 -204.12109375 149.34375 C-202.18168497 147.20075688 -200.30670701 145.01655362 -198.4375 142.8125 C-195.5577644 139.51005092 -192.46971341 136.64558178 -189.125 133.8203125 C-187.69934979 132.59907537 -186.30311315 131.342709 -184.9375 130.0546875 C-172.40469267 118.26166393 -158.03091457 108.32989464 -143 100 C-142.28408691 99.5982959 -141.56817383 99.1965918 -140.83056641 98.78271484 C-108.7242796 80.88323646 -74.42918026 71.67034275 -38 68 C-38.5910335 73.61822152 -40.64152189 78.21575545 -42.9296875 83.30859375 C-43.32068634 84.19354019 -43.71168518 85.07848663 -44.11453247 85.99024963 C-45.36158464 88.80890558 -46.61806208 91.62324058 -47.875 94.4375 C-48.71288 96.32588785 -49.5501262 98.21455705 -50.38671875 100.10351562 C-54.20462867 108.72193676 -54.20462867 108.72193676 -56.05717468 112.8306427 C-56.66625468 114.23208167 -57.2409149 115.64921733 -57.77253723 117.08183289 C-59.51152294 121.7086185 -59.51152294 121.7086185 -62.04272461 123.21850586 C-62.82139893 123.38229736 -63.60007324 123.54608887 -64.40234375 123.71484375 C-65.28204834 123.92125488 -66.16175293 124.12766602 -67.06811523 124.34033203 C-68.48846069 124.63593018 -68.48846069 124.63593018 -69.9375 124.9375 C-71.9501424 125.42448538 -73.96054879 125.92079404 -75.96875 126.42578125 C-76.98324219 126.68053223 -77.99773437 126.9352832 -79.04296875 127.19775391 C-100.41761982 132.99672215 -121.66329822 144.32980695 -139 158 C-139.94617188 158.73734375 -140.89234375 159.4746875 -141.8671875 160.234375 C-162.32219861 176.5752054 -178.93911569 195.26053209 -192 218 C-192.35803711 218.62036133 -192.71607422 219.24072266 -193.08496094 219.87988281 C-202.72058464 236.75267055 -209.73346441 255.04055887 -214 274 C-214.19609863 274.86383301 -214.39219727 275.72766602 -214.59423828 276.61767578 C-220.12654233 302.19836212 -220.64938381 331.36205063 -215 357 C-214.80132324 357.91313965 -214.60264648 358.8262793 -214.39794922 359.76708984 C-209.24246185 382.70997409 -200.66103722 408.27762224 -186 427 C-181.28049415 417.84292351 -176.98277094 408.59067954 -172.97674561 399.10263062 C-171.6972749 396.07256825 -170.40772133 393.04682501 -169.11895752 390.02070618 C-168.44070012 388.42788373 -167.76292868 386.83485427 -167.08563232 385.24162292 C-163.38547103 376.54102494 -159.63225695 367.86355801 -155.875 359.1875 C-155.19731831 357.62167583 -154.51966525 356.05583927 -153.84204102 354.48999023 C-151.89562432 349.99292368 -149.94804837 345.49635996 -148 341 C-147.71274048 340.33695862 -147.42548096 339.67391724 -147.1295166 338.99078369 C-144.7312519 333.45545484 -142.3324751 327.92034805 -139.93310547 322.38549805 C-135.61623271 312.42618745 -131.30735269 302.46343117 -127 292.5 C-122.17155151 281.33121082 -117.33968615 270.16392474 -112.5 259 C-107.72359411 247.98157368 -102.95357375 236.96039951 -98.1875 225.9375 C-97.85317963 225.16429413 -97.51885925 224.39108826 -97.17440796 223.5944519 C-94.78277397 218.06303913 -92.39136264 212.53153009 -90 207 C-87.27098425 200.68743474 -84.54187334 194.37491066 -81.8125 188.0625 C-81.47793793 187.28873016 -81.14337585 186.51496033 -80.79867554 185.71774292 C-75.84691657 174.26589223 -70.88855866 162.81692014 -65.92626953 151.36962891 C-61.67482276 141.56116267 -57.43012843 131.7497835 -53.1875 121.9375 C-52.85317963 121.16429413 -52.51885925 120.39108826 -52.17440796 119.5944519 C-49.78277397 114.06303913 -47.39136264 108.53153009 -45 103 C-42.60855624 97.46828228 -40.21704068 91.93659564 -37.82531738 86.40499878 C-37.15007615 84.84326436 -36.47486456 83.28151713 -35.79968262 81.71975708 C-32.41497577 73.89075178 -29.02878377 66.06240804 -25.6328125 58.23828125 C-25.09496532 56.99886301 -24.55712347 55.75944246 -24.01928711 54.52001953 C-22.9760264 52.11596297 -21.93257364 49.71198974 -20.88891602 47.30810547 C-17.87020264 40.34561193 -14.87366482 33.37405594 -11.89453125 26.39453125 C-11.5487352 25.585 -11.20293915 24.77546875 -10.84666443 23.94140625 C-9.14784774 19.9640387 -7.451519 15.98564442 -5.75952148 12.00537109 C-5.14706924 10.56994577 -4.53452519 9.1345596 -3.921875 7.69921875 C-3.49942253 6.70158257 -3.49942253 6.70158257 -3.06843567 5.68379211 C-1.11349857 1.11349857 -1.11349857 1.11349857 0 0 Z M-5 228 C-13.56561548 247.34103348 -21.62647078 266.8860022 -29.70068359 286.43554688 C-33.2101354 294.93118608 -36.73040293 303.42234348 -40.25094604 311.91339111 C-41.35279718 314.57143908 -42.45392717 317.22978483 -43.55493164 319.88818359 C-44.23191252 321.52181863 -44.90891342 323.15544537 -45.5859375 324.7890625 C-45.8883284 325.51957825 -46.1907193 326.25009399 -46.50227356 327.00274658 C-46.78817856 327.69229431 -47.07408356 328.38184204 -47.36865234 329.09228516 C-47.63925476 329.74690735 -47.90985718 330.40152954 -48.18865967 331.07598877 C-48.73709257 332.37654171 -49.30075629 333.6707603 -49.87823486 334.9586792 C-51.16341775 337.83176691 -52 339.81180087 -52 343 C-46.14008898 341.14825347 -40.52223599 339.03218416 -34.93359375 336.48046875 C-34.18865158 336.14488953 -33.44370941 335.8093103 -32.67619324 335.46356201 C-31.08442306 334.74609749 -29.49350326 334.02674376 -27.90338135 333.30563354 C-23.6961453 331.39789708 -19.48254387 329.50431179 -15.26953125 327.609375 C-14.41591003 327.22502792 -13.56228882 326.84068085 -12.68280029 326.44468689 C-4.02257651 322.55004212 4.67136474 318.73394377 13.375 314.9375 C14.07384308 314.6325058 14.77268616 314.3275116 15.4927063 314.01327515 C19.32749617 312.33994023 23.16323566 310.6688039 27 309 C22.38632451 295.54034362 17.28039219 282.2979445 12.0625 269.0625 C11.28162506 267.07628035 10.50102502 265.08995261 9.72070312 263.10351562 C8.57448352 260.18579181 7.42805472 257.26815256 6.28042603 254.35098267 C2.82925449 245.57676477 -0.59071334 236.79056459 -4 228 C-4.33 228 -4.66 228 -5 228 Z M125.33203125 288.87109375 C124.43935547 289.28037109 123.54667969 289.68964844 122.62695312 290.11132812 C121.69818359 290.54896484 120.76941406 290.98660156 119.8125 291.4375 C118.87212891 291.87126953 117.93175781 292.30503906 116.96289062 292.75195312 C114.63775195 293.82600195 112.3171936 294.90894188 110 296 C110.58628019 300.75996136 111.9561504 304.57368923 113.94140625 308.9296875 C114.22853989 309.56488312 114.51567352 310.20007874 114.81150818 310.85452271 C115.72189079 312.86443181 116.64200189 314.86970656 117.5625 316.875 C118.18489523 318.24449625 118.80664666 319.61428528 119.42773438 320.984375 C120.94439226 324.32633508 122.46980249 327.66421384 124 331 C126.68776484 329.89647451 129.37521702 328.7921978 132.0625 327.6875 C132.81466797 327.37876953 133.56683594 327.07003906 134.34179688 326.75195312 C138.91154275 324.87262041 143.46340165 322.95802718 148 321 C147.34 319.02 146.68 317.04 146 315 C139.54646385 317.05764921 133.2638737 319.42383482 127 322 C126.34 319.36 125.68 316.72 125 314 C131.93 310.535 131.93 310.535 139 307 C138.34 305.35 137.68 303.7 137 302 C135.58208592 302.45445964 134.16571954 302.91374944 132.75 303.375 C131.96109375 303.63023437 131.1721875 303.88546875 130.359375 304.1484375 C127.99751144 304.94112701 127.99751144 304.94112701 125.890625 306.1015625 C124 307 124 307 121 307 C120.01 304.36 119.02 301.72 118 299 C118.70511719 298.88785156 119.41023438 298.77570313 120.13671875 298.66015625 C123.27389512 297.93685092 125.90127906 296.80542309 128.8125 295.4375 C130.27623047 294.75494141 130.27623047 294.75494141 131.76953125 294.05859375 C132.50558594 293.70925781 133.24164063 293.35992187 134 293 C133.67 291.35 133.34 289.7 133 288 C129.35576575 286.78525525 128.71511257 287.29806868 125.33203125 288.87109375 Z M83.125 309.875 C79.67826869 314.94372252 78.44510396 318.74818913 79.4609375 324.9140625 C81.03872535 331.0194155 83.63976785 335.5158491 89 339 C93.57870205 341.65487766 97.82350831 341.62957331 103 341 C108.37664574 339.30259478 111.84090136 336.73864796 115 332 C112.525 330.02 112.525 330.02 110 328 C109.236875 328.804375 108.47375 329.60875 107.6875 330.4375 C104.4679365 333.50731636 102.96492592 333.94736768 98.5625 334.1875 C95.14497566 334.0076303 93.8005024 333.77023627 91 332 C88.15928566 328.36593301 86.62142982 324.43941629 86.9375 319.8125 C88.19204412 315.31090053 89.15001469 313.6468649 93 311 C96.00251734 310.32606813 98.92760161 310.07363046 102 310 C102 307.69 102 305.38 102 303 C94.31801777 302.45128698 88.41306215 303.98214481 83.125 309.875 Z M60 319 C64.84400253 330.40783628 69.69900653 341.79515498 75 353 C76.98 352.01 78.96 351.02 81 350 C79.43909152 346.39514208 77.87597172 342.79124687 76.3125 339.1875 C75.87744141 338.18267578 75.44238281 337.17785156 74.99414062 336.14257812 C72.06552646 329.39591884 69.06583266 322.6854133 66 316 C63.84481828 316 61.7838343 317.90225582 60 319 Z M-3 336 C-3.40729228 338.32156597 -3.74438677 340.6568787 -4 343 C-2.00136244 342.42055068 -2.00136244 342.42055068 0 341 C1.29231642 337.95800528 1.29231642 337.95800528 2 335 C-0.9254644 334.7763932 -0.9254644 334.7763932 -3 336 Z M44 327 C46.97 333.6 49.94 340.2 53 347 C50.86917969 346.278125 48.73835938 345.55625 46.54296875 344.8125 C44.47814653 344.11642712 42.41280762 343.42190874 40.34741211 342.72753906 C38.91229357 342.24413754 37.47771771 341.75912183 36.04370117 341.27246094 C33.98236386 340.57321879 31.91914458 339.87980523 29.85546875 339.1875 C28.61434326 338.76855469 27.37321777 338.34960938 26.09448242 337.91796875 C23.05860813 336.85780132 23.05860813 336.85780132 20 337 C20.6563284 341.30338565 22.14671741 344.87674613 23.94140625 348.83203125 C24.22853989 349.46864182 24.51567352 350.10525238 24.81150818 350.76115417 C25.72364791 352.78050998 26.64294708 354.79651078 27.5625 356.8125 C28.1847215 358.1866332 28.8064714 359.56098005 29.42773438 360.93554688 C30.94637195 364.2928549 32.47144487 367.64719371 34 371 C35.98 370.34 37.96 369.68 40 369 C37.83836487 362.06001352 35.1063786 355.56882431 32 349 C38.98788783 350.42786562 45.665307 352.39926924 52.4375 354.625 C54.39368168 355.2656209 56.35067416 355.90377298 58.30859375 356.5390625 C59.16251709 356.81959473 60.01644043 357.10012695 60.89624023 357.38916016 C62.95500483 358.09294668 62.95500483 358.09294668 65 358 C63.02753415 351.84833598 60.52815674 345.98177266 57.94189453 340.06665039 C57.39458751 338.80764795 56.85362077 337.54587139 56.31884766 336.28149414 C55.54206432 334.44582748 54.74398662 332.61921739 53.9453125 330.79296875 C53.47625488 329.7052417 53.00719727 328.61751465 52.52392578 327.49682617 C51.23567769 324.90595529 51.23567769 324.90595529 49.00341797 323.95043945 C46.52928679 323.78130975 46.52928679 323.78130975 44 327 Z M-1.0625 345.3125 C-2.46725586 345.91868164 -2.46725586 345.91868164 -3.90039062 346.53710938 C-4.79048828 346.93349609 -5.68058594 347.32988281 -6.59765625 347.73828125 C-7.41758057 348.09962158 -8.23750488 348.46096191 -9.08227539 348.83325195 C-11.33195133 349.91901125 -11.33195133 349.91901125 -12 353 C-11.04643821 355.86798359 -11.04643821 355.86798359 -9.54296875 359.0234375 C-9.00736328 360.209375 -8.47175781 361.3953125 -7.91992188 362.6171875 C-7.34277209 363.86994107 -6.765295 365.12254389 -6.1875 366.375 C-5.62083004 367.61937551 -5.05506428 368.8641632 -4.49023438 370.109375 C-3.44645755 372.40892634 -2.39831221 374.70650315 -1.34448242 377.00146484 C-0.15909905 379.64516897 0.94764388 382.30108966 2 385 C10.40193774 382.49415892 18.11941439 378.78974143 26 375 C25.34 373.02 24.68 371.04 24 369 C18.39 371.31 12.78 373.62 7 376 C4 372 4 372 4 368 C8.29 366.02 12.58 364.04 17 362 C16.34 360.02 15.68 358.04 15 356 C9.72 357.98 4.44 359.96 -1 362 C-1.66 359.36 -2.32 356.72 -3 354 C2.28 351.69 7.56 349.38 13 347 C12.34 345.02 11.68 343.04 11 341 C6.80265034 341 2.71645049 343.62803347 -1.0625 345.3125 Z M-49 367 C-46.63517299 374.61103027 -43.5641079 381.79148517 -40.3125 389.0625 C-39.80138672 390.21427734 -39.29027344 391.36605469 -38.76367188 392.55273438 C-37.51278694 395.37014812 -36.25815677 398.18582798 -35 401 C-26.07100891 399.65016116 -18.68913387 395.73633882 -13.0234375 388.61328125 C-10.54196024 384.70163961 -10.44000706 380.47194364 -11 376 C-12.94397997 369.73476333 -16.73268365 365.74939513 -22 362 C-30.94710389 357.52644806 -40.93787694 363.04544037 -49 367 Z M-72 376 C-71.67 389.86 -71.34 403.72 -71 418 C-69.02 417.34 -67.04 416.68 -65 416 C-64.73067479 411.34947128 -64.73067479 411.34947128 -66 407 C-63.01088798 405.96455597 -60.00999889 404.97292893 -57 404 C-55.6078125 403.5359375 -55.6078125 403.5359375 -54.1875 403.0625 C-53.465625 403.041875 -52.74375 403.02125 -52 403 C-50.66666667 404.33333333 -49.33333333 405.66666667 -48 407 C-44.60845705 406.83849795 -43.41703243 406.41703243 -41 404 C-45.00533335 399.88201665 -49.11693904 395.98551675 -53.47265625 392.2421875 C-57.73086086 388.46442947 -61.8527221 384.5381155 -65.984375 380.62280273 C-66.61730469 380.02669189 -67.25023437 379.43058105 -67.90234375 378.81640625 C-68.47460693 378.27443604 -69.04687012 377.73246582 -69.63647461 377.17407227 C-70.82640716 375.89125011 -70.82640716 375.89125011 -72 376 Z M-102 390 C-106.28687748 392.90166197 -110.1214825 396.07003699 -112 401 C-112.94231824 408.05642963 -112.28487967 414.19893214 -108 420 C-103.92621193 424.37513677 -99.70304515 426.6289938 -93.8125 427.4375 C-87.42085231 426.70403223 -81.35210636 423.81840347 -77 419 C-77.66 417.68 -78.32 416.36 -79 415 C-80.32 415 -81.64 415 -83 415 C-83 415.66 -83 416.32 -83 417 C-87.72734707 419.52125177 -92.77476451 419.86658257 -98 419 C-100.82424288 416.80977082 -102.41508603 415.16982793 -104 412 C-104.12148305 410.37834248 -104.17543652 408.75115673 -104.1875 407.125 C-104.20167969 406.26132812 -104.21585938 405.39765625 -104.23046875 404.5078125 C-103.98570026 401.84439948 -103.40354033 400.25874411 -102 398 C-98.47251876 395.42222525 -94.22376877 395.42237688 -90 395 C-90 393.02 -90 391.04 -90 389 C-94.38282621 387.53905793 -97.73079586 388.36117647 -102 390 Z M51.48046875 389.921875 C50.01250854 390.57857178 50.01250854 390.57857178 48.51489258 391.24853516 C47.41685303 391.74401855 46.31881348 392.23950195 45.1875 392.75 C43.3734182 393.56271463 41.55932527 394.37540457 39.74497986 395.18753052 C38.40237796 395.78869679 37.0599892 396.39033923 35.7177887 396.99240112 C30.01862907 399.54813227 24.31127993 402.08514222 18.6015625 404.6171875 C-0.51681918 413.09710376 -19.61681252 421.61472132 -38.67843628 430.22149658 C-53.7745568 437.03436419 -68.92907523 443.71063156 -84.10644531 450.34033203 C-84.94195923 450.70563019 -85.77747314 451.07092834 -86.63830566 451.44729614 C-88.19735454 452.12870346 -89.75681703 452.80916553 -91.31677246 453.48849487 C-93.21462798 454.31782078 -95.10762011 455.15825457 -97 456 C-97.7528125 456.25144775 -98.505625 456.50289551 -99.28125 456.76196289 C-102.18039321 458.85025198 -103.14694406 462.09742359 -104.453125 465.30859375 C-104.91075226 466.3923806 -104.91075226 466.3923806 -105.37762451 467.49806213 C-106.0191143 469.0244787 -106.65416575 470.55361484 -107.28320312 472.08520508 C-108.24730464 474.43094198 -109.23116149 476.76758355 -110.21875 479.10351562 C-110.83971791 480.5880502 -111.45954854 482.07306111 -112.078125 483.55859375 C-112.37180969 484.2586705 -112.66549438 484.95874725 -112.96807861 485.68003845 C-114.16775747 488.61441678 -115 490.79743428 -115 494 C-65.8055864 519.15623423 -10.02492913 526.07640993 43 509 C61.48470573 502.63811784 79.12922013 494.47180071 95 483 C90.96905519 471.31790384 86.63899222 459.7908535 82.0625 448.3125 C81.41617836 446.68469954 80.77018949 445.0567669 80.12451172 443.42871094 C79.11905705 440.89389608 78.11326935 438.35921702 77.10620117 435.82504272 C74.63439986 429.60497588 72.17536046 423.37996382 69.72265625 417.15234375 C69.37693069 416.27479935 69.03120514 415.39725494 68.67500305 414.49311829 C67.32616273 411.0692678 65.97740757 407.64538427 64.62966919 404.22109985 C63.70448769 401.87102059 62.77815903 399.52139663 61.8515625 397.171875 C61.57623184 396.47162704 61.30090118 395.77137909 61.01722717 395.0499115 C59.61173384 391.47974712 59.61173384 391.47974712 58 388 C55.4133738 388 53.84635996 388.85716683 51.48046875 389.921875 Z M-136 405 C-136.16741675 418.69096943 -135.6492751 432.32550669 -135 446 C-133.02 445.34 -131.04 444.68 -129 444 C-129 441.36 -129 438.72 -129 436 C-121.07417017 431.97664847 -121.07417017 431.97664847 -117.125 432.0625 C-114.85834274 433.06249585 -113.57081059 434.09849244 -112 436 C-110.02 435.34 -108.04 434.68 -106 434 C-109.01379811 427.28478966 -115.19243583 422.75658079 -120.671875 418.04296875 C-124.19583458 414.9506351 -127.62463009 411.75498723 -131.05151367 408.55566406 C-133.20462424 406.09482493 -133.20462424 406.09482493 -136 405 Z " fill="#FFFFFF" transform="translate(272,4)"/>
<path d="M0 0 C39.12589366 8.68864673 76.84160113 28.45532931 106 56 C107.30794571 57.13029167 108.62036248 58.25543311 109.9375 59.375 C118.84983801 67.17329576 126.70578678 75.68173809 134 85 C134.79019531 85.98484375 135.58039063 86.9696875 136.39453125 87.984375 C155.67507296 112.22364417 182 150.9449333 182 183 C171.59494069 181.16949844 161.31302066 179.0237017 151.06616211 176.44848633 C148.98625444 175.94258916 146.89821599 175.46898886 144.8034668 175.02856445 C127.86059154 171.43623334 127.86059154 171.43623334 123.11206055 165.73214722 C119.96298683 160.60529426 117.90239298 155.18841213 115.96043396 149.51579285 C109.35861272 132.22276142 94.67539159 116.13531146 82 103 C81.16339844 102.10023438 80.32679688 101.20046875 79.46484375 100.2734375 C68.50320834 88.7992671 55.60406904 79.62123274 42.07421875 71.4140625 C41.45281006 71.03145264 40.83140137 70.64884277 40.19116211 70.25463867 C37.91234936 68.91228342 37.91234936 68.91228342 35.07641602 67.61450195 C26.10922088 63.10279732 23.13184936 58.13513162 19.5625 48.9375 C19.03799372 47.66788512 18.50967195 46.39984061 17.9777832 45.13330078 C16.86683359 42.47612775 15.7761493 39.8118509 14.69824219 37.14111328 C12.97514473 32.9005033 11.14348477 28.71188831 9.2890625 24.52734375 C8.68020598 23.14919253 8.07139996 21.771019 7.46264648 20.39282227 C7.1676828 19.72533966 6.87271912 19.05785706 6.56881714 18.37014771 C6.27798248 17.71174896 5.98714783 17.05335022 5.6875 16.375 C5.39851837 15.72103241 5.10953674 15.06706482 4.8117981 14.39328003 C3.99758374 12.54339833 3.19194714 10.68974832 2.38671875 8.8359375 C1.92483154 7.77938965 1.46294434 6.7228418 0.98706055 5.63427734 C0 3 0 3 0 0 Z " fill="#FFFFFF" transform="translate(314,79)"/>
<path d="M0 0 C3.36606937 2.88520232 4.83793387 5.69693411 5.54296875 10.08984375 C5.80567411 14.35703078 5.65129161 16.26544531 3 19.75 C-3.8783871 24.94700359 -3.8783871 24.94700359 -6.81738281 24.72045898 C-9.58865282 23.54609432 -9.98600262 22.20311399 -11.171875 19.47265625 C-11.56503906 18.58255859 -11.95820313 17.69246094 -12.36328125 16.77539062 C-12.75902344 15.83888672 -13.15476563 14.90238281 -13.5625 13.9375 C-13.97371094 13.00486328 -14.38492188 12.07222656 -14.80859375 11.11132812 C-17.8125 4.21032755 -17.8125 4.21032755 -17.8125 1.875 C-11.72539627 -1.16855187 -6.64396549 -2.65758619 0 0 Z " fill="#FFFFFF" transform="translate(248.8125,372.125)"/>
<path d="M0 0 C3.56311466 1.78155733 5.35645475 3.16763009 8 6 C7.67 6.99 7.34 7.98 7 9 C3.4375 10.1875 3.4375 10.1875 0 11 C0 7.37 0 3.74 0 0 Z " fill="#FFFFFF" transform="translate(142,423)"/>
<path d="M0 0 C6.875 5.625 6.875 5.625 8 9 C5.09399739 10.25664978 3.20395416 11 0 11 C0 7.37 0 3.74 0 0 Z " fill="#FFFFFF" transform="translate(206,394)"/>
</svg>
